<svg width="150" height="112" viewBox="0 0 150 112" fill="none" xmlns="http://www.w3.org/2000/svg">
<rect width="150" height="112" fill="#EFEFEF"/>
<path d="M63.2695 61.5312V71.9727H62.3438V61.5312H63.2695ZM55.0664 65.9727C55.0723 63.7578 56.1738 62.3457 57.7266 62.3398C59.2734 62.3457 60.3926 63.7578 60.3867 65.9727C60.3926 68.1934 59.2734 69.5996 57.7266 69.5938C56.1738 69.5996 55.0723 68.1934 55.0664 65.9727ZM55.957 65.9727C55.957 67.666 56.6836 68.7793 57.7266 68.7734C58.7754 68.7793 59.4961 67.666 59.4961 65.9727C59.4961 64.2793 58.7754 63.166 57.7266 63.1602C56.6836 63.166 55.957 64.2793 55.957 65.9727ZM70.4766 62.5625V69.3359H65.6602V62.5625H70.4766ZM66.5625 68.5859H69.5742V63.3008H66.5625V68.5859ZM72.7148 71.9727V61.5312H73.6406V71.9727H72.7148ZM79.1484 64.7305C79.1543 66.5 80.4375 68.2988 81.9727 68.9609L81.457 69.6875C80.2383 69.1367 79.1895 67.9355 78.7031 66.4941C78.2168 68.0234 77.1621 69.3477 75.9727 69.9453L75.4219 69.2188C76.916 68.5039 78.2168 66.5352 78.2227 64.7305V63.3711H75.7617V62.6094H81.6328V63.3711H79.1484V64.7305ZM83.0859 71.9492V61.5312H84.0117V71.9492H83.0859ZM95.3203 66.3711V67.0977H85.7812V66.3711H95.3203ZM86.9297 68.6211V67.9297H94.125V70.1445H87.8672V71.1406H94.4648V71.8086H86.9414V69.5117H93.2109V68.6211H86.9297ZM86.9883 62.5156V61.8477H94.0898V64.0039H87.9375V64.918H94.2773V65.5859H87.0234V63.3711H93.1641V62.5156H86.9883ZM48.1289 80.832C48.123 82.1152 49.8691 83.1582 51.7148 83.4102L51.3516 84.1367C49.6699 83.8906 48.0938 83.0527 47.5312 81.834C46.9629 83.0527 45.3984 83.8906 43.7109 84.1367L43.3711 83.4102C45.2051 83.1582 46.9395 82.1152 46.9336 80.832V80.8086H43.6523V80.0586H51.4336V80.8086H48.1289V80.832ZM42.7734 85.6602V84.8984H52.3125V85.6602H48.0703V87.793H47.1562V85.6602H42.7734ZM43.9922 89.7266V86.75H44.918V88.9531H51.2461V89.7266H43.9922ZM61.7461 79.5312V89.9727H60.8203V79.5312H61.7461ZM53.7656 87.4531V80.4219H54.6797V83.1758H57.7852V80.4219H58.6875V87.4531H53.7656ZM54.6797 86.6797H57.7852V83.9141H54.6797V86.6797ZM73.0195 84.4062V85.168H68.7188V86.2812C70.6816 86.3691 71.8477 87.0078 71.8594 88.1094C71.8477 89.2754 70.5059 89.9258 68.2734 89.9258C66.0117 89.9258 64.6699 89.2754 64.6758 88.1094C64.6699 87.0078 65.8301 86.3691 67.8164 86.2812V85.168H63.5273V84.4062H73.0195ZM64.0664 83.0469C65.8711 82.8594 67.6113 81.9395 67.6758 80.7734H64.3945V80.0234H72.1758V80.7734H68.8711C68.9355 81.9395 70.6582 82.8594 72.4922 83.0469L72.1523 83.7734C70.4473 83.5684 68.8477 82.8008 68.2734 81.6465C67.6992 82.8008 66.1113 83.5684 64.3945 83.7734L64.0664 83.0469ZM65.6133 88.1094C65.6016 88.8008 66.6035 89.2168 68.2734 89.2109C69.9258 89.2168 70.9277 88.8008 70.9336 88.1094C70.9277 87.4004 69.9258 86.9961 68.2734 86.9844C66.6035 86.9961 65.6016 87.4004 65.6133 88.1094ZM82.5 79.5312V85.1211H81.5859V79.5312H82.5ZM74.1445 82.4375C74.1387 81.0137 75.293 80.0352 76.875 80.0469C78.457 80.0352 79.5996 81.0137 79.6055 82.4375C79.5996 83.8555 78.457 84.834 76.875 84.8281C75.293 84.834 74.1387 83.8555 74.1445 82.4375ZM75.0469 82.4375C75.0352 83.3867 75.8027 84.0605 76.875 84.0664C77.9355 84.0605 78.7031 83.3867 78.7031 82.4375C78.7031 81.4824 77.9355 80.8145 76.875 80.8203C75.8027 80.8145 75.0352 81.4824 75.0469 82.4375ZM75.75 89.8086V85.6484H76.6641V86.9141H81.5859V85.6484H82.5V89.8086H75.75ZM76.6641 89.0586H81.5859V87.6523H76.6641V89.0586ZM92.8594 79.5312V89.9492H91.9453V79.5312H92.8594ZM84.9492 87.2656V80.5625H85.8516V86.4688C87.4453 86.457 89.0859 86.334 90.832 85.9648L90.9609 86.75C89.1094 87.1367 87.4629 87.2656 85.793 87.2656H84.9492ZM102.703 79.5312V83.6562H104.449V84.4297H102.703V89.9727H101.789V79.5312H102.703ZM95.0977 87.3594V80.5508H99.9609V81.3125H96.0117V86.5859C97.8984 86.5801 99.2285 86.498 100.781 86.2109L100.898 87.0078C99.2637 87.3008 97.8984 87.3594 95.918 87.3594H95.0977ZM106.113 89.0703C105.703 89.0645 105.352 88.7246 105.363 88.3086C105.352 87.8984 105.703 87.5586 106.113 87.5586C106.529 87.5586 106.869 87.8984 106.863 88.3086C106.869 88.7246 106.529 89.0645 106.113 89.0703Z" fill="#828282"/>
<path d="M91 49.4444V24.5556C91 22.6 89.4 21 87.4444 21H62.5556C60.6 21 59 22.6 59 24.5556V49.4444C59 51.4 60.6 53 62.5556 53H87.4444C89.4 53 91 51.4 91 49.4444ZM68.7778 39.6667L73.2222 45.0178L79.4444 37L87.4444 47.6667H62.5556L68.7778 39.6667Z" fill="#828282"/>
</svg>
